<svg xmlns="http://www.w3.org/2000/svg" width="36.938" height="44" viewBox="0 0 36.938 44">
  <defs>
    <style>
      .cls-1 {
        fill: #ff1b60;
        fill-rule: evenodd;
      }
    </style>
  </defs>
  <path id="geo" class="cls-1" d="M674.352,10812c-3.014-3-5.99-6.1-8.976-9.1-1.394-1.4-2.856-2.7-4.2-4.2-4.915-5.2-6.385-11.4-4.16-18.2,2.2-6.7,7.048-10.8,14.033-12.2a18.19,18.19,0,0,1,21.245,13.3,17.288,17.288,0,0,1-4.535,17.2c-4.253,4.4-8.7,8.6-13.057,12.9A2.426,2.426,0,0,1,674.352,10812Zm0.026-4.7c3.907-3.9,7.8-7.5,11.449-11.4a13.515,13.515,0,0,0,3.576-11.4,14.975,14.975,0,0,0-17.5-12.9,14.55,14.55,0,0,0-11.763,10.3c-1.829,5.6-.366,10.7,3.766,14.9,3.026,3.1,6.125,6.1,9.187,9.1C673.537,10806.4,673.953,10806.8,674.378,10807.3Zm-4.913-21.1a5.01,5.01,0,1,1,5,5.1A5.034,5.034,0,0,1,669.465,10786.2Z" transform="translate(-656 -10768)"/>
</svg>
