<svg xmlns="http://www.w3.org/2000/svg" width="18" height="18" viewBox="0 0 18 18">
  <defs>
    <style>
      .cls-1 {
        fill: #ff1b60;
        fill-rule: evenodd;
      }
    </style>
  </defs>
  <path id="time" class="cls-1" d="M1050.28,10703.4v-1.3a8.637,8.637,0,0,1,9.09,5.5,9.065,9.065,0,0,1-4.47,11.5,8.933,8.933,0,0,1-11.75-3.7c-2.15-3.6-1.18-9,2.01-11.2,2.25,2.2,4.49,4.5,6.73,6.7a12.617,12.617,0,0,1-1.01,1.1q-2.865-2.85-5.71-5.7a7.408,7.408,0,0,0-.44,8.8A7.521,7.521,0,1,0,1050.28,10703.4Z" transform="translate(-1042 -10702)"/>
</svg>
