<svg xmlns="http://www.w3.org/2000/svg" width="24" height="24" viewBox="0 0 24 24">
  <defs>
    <style>
      .cls-1 {
        fill: #ff1b60;
        fill-rule: evenodd;
      }
    </style>
  </defs>
  <path id="instargram" class="cls-1" d="M1255.07,7642h-10.14a6.933,6.933,0,0,1-6.93-6.93v-10.14a6.927,6.927,0,0,1,6.93-6.93h10.14a6.927,6.927,0,0,1,6.93,6.93v10.14A6.933,6.933,0,0,1,1255.07,7642Zm4.66-17.39a4.4,4.4,0,0,0-4.41-4.41s-2.56-.13-5.06-0.13c-2.8,0-5.58.13-5.58,0.13a4.4,4.4,0,0,0-4.41,4.41s-0.07,2.85-.07,5.61c0,2.56.07,5.04,0.07,5.04a4.411,4.411,0,0,0,4.41,4.41s2.75,0.12,5.46.12c2.61,0,5.18-.12,5.18-0.12a4.411,4.411,0,0,0,4.41-4.41s0.13-2.48.13-5.04C1259.86,7627.46,1259.73,7624.61,1259.73,7624.61Zm-3.34.38a1.45,1.45,0,1,1,1.45-1.45A1.451,1.451,0,0,1,1256.39,7624.99ZM1250,7636.2a6.205,6.205,0,1,1,6.2-6.2A6.207,6.207,0,0,1,1250,7636.2Zm0-10.27a4,4,0,1,0,4,4A4,4,0,0,0,1250,7625.93Z" transform="translate(-1238 -7618)"/>
</svg>
