<svg xmlns="http://www.w3.org/2000/svg" width="12" height="12" viewBox="0 0 12 12">
  <defs>
    <style>
      .cls-1 {
        fill: #fff;
        fill-rule: evenodd;
      }
    </style>
  </defs>
  <path id="phone" class="cls-1" d="M1339.12,65.429a11.146,11.146,0,0,1-.68-3.422H1337a9.989,9.989,0,0,0,2.3,6.713,9.732,9.732,0,0,0,7.68,3.266V70.552a10.731,10.731,0,0,1-3.42-.686c0.13-.316.26-0.618,0.39-0.93,0.36,0.1.7,0.236,1.05,0.3a16.819,16.819,0,0,0,1.81.247A1.026,1.026,0,0,1,1348,70.71v1.267a0.881,0.881,0,0,1-.88.984,8.671,8.671,0,0,1-3.09-.313,11.006,11.006,0,0,1-4.31-2.119,9.762,9.762,0,0,1-2.82-3.957,10.7,10.7,0,0,1-.9-4.317,3.016,3.016,0,0,1,.06-0.6,0.723,0.723,0,0,1,.7-0.627c0.62-.03,1.25-0.044,1.87-0.012a0.834,0.834,0,0,1,.84.872c0.07,0.651.13,1.306,0.24,1.949a10.992,10.992,0,0,0,.35,1.189C1339.75,65.158,1339.44,65.289,1339.12,65.429Z" transform="translate(-1336 -61)"/>
</svg>
