<svg xmlns="http://www.w3.org/2000/svg" width="18" height="14" viewBox="0 0 18 14">
  <defs>
    <style>
      .cls-1 {
        fill: #ff1b60;
        fill-rule: evenodd;
      }
    </style>
  </defs>
  <path id="quote" class="cls-1" d="M789.718,8301.49a2.808,2.808,0,0,0,2.108.88,3.324,3.324,0,0,1-.984,2.16,6.911,6.911,0,0,1-2,1.37l1.855,3.13a16.6,16.6,0,0,0,1.826-.89,7.927,7.927,0,0,0,2.079-1.65,9.353,9.353,0,0,0,1.686-2.64,9.559,9.559,0,0,0,.7-3.87,5.278,5.278,0,0,0-1.18-3.58,4.021,4.021,0,0,0-3.2-1.37,3.883,3.883,0,0,0-2.781,1.03,3.477,3.477,0,0,0-1.1,2.67A3.651,3.651,0,0,0,789.718,8301.49Zm-9.721,0a2.806,2.806,0,0,0,2.107.88,3.323,3.323,0,0,1-.983,2.16,6.924,6.924,0,0,1-2,1.37l1.854,3.13a16.6,16.6,0,0,0,1.826-.89,7.947,7.947,0,0,0,2.08-1.65,9.373,9.373,0,0,0,1.685-2.64,9.559,9.559,0,0,0,.7-3.87,5.273,5.273,0,0,0-1.18-3.58,4.02,4.02,0,0,0-3.2-1.37,3.887,3.887,0,0,0-2.782,1.03,3.477,3.477,0,0,0-1.1,2.67A3.652,3.652,0,0,0,780,8301.49Z" transform="translate(-779 -8295.03)"/>
</svg>
