<svg xmlns="http://www.w3.org/2000/svg" width="47" height="61" viewBox="0 0 47 61">
  <defs>
    <style>
      .cls-1 {
        fill: #ff1b60;
        fill-rule: evenodd;
      }
    </style>
  </defs>
  <path id="_2" data-name="2" class="cls-1" d="M975.825,9400.25h2.056v1.98q0,5.01,0,10.02c0,3.75-1.593,5.73-4.637,5.74q-11.814.015-23.628,0c-2.687,0-5.375.01-8.062,0-2.92-.02-4.547-2.04-4.547-5.66q0-24.9-.006-49.8c0-2.33.711-4.14,2.482-5.06a4.324,4.324,0,0,1,2.021-.45q16-.03,32.009-0.01c2.707,0.01,4.353,2.11,4.369,5.48,0,0.69,0,1.37,0,2.11h-2.059c0-.72,0-1.41,0-2.09-0.015-2.01-.775-2.96-2.414-2.96q-6.9-.015-13.81-0.01-8.94,0-17.879.01c-1.952,0-2.657.86-2.657,3.26q0,24.8,0,49.6c0,2.08.756,3.04,2.431,3.04q15.964,0.015,31.929,0c1.622,0,2.4-.97,2.4-2.98C975.83,9408.43,975.825,9404.4,975.825,9400.25ZM984,9374.8v20.25c-0.341.02-.6,0.06-0.859,0.06q-10.015,0-20.03-.01a3.237,3.237,0,0,1-3.489-2.83,7.728,7.728,0,0,1-.122-1.57q-0.014-8.43-.006-16.86c0-2.42,1.017-3.82,2.947-4.09a7.155,7.155,0,0,1,1.035-.05q8.739,0,17.477.01c1.031,0,1.031,0,1.027,1.29,0,0.36,0,.72,0,1.19-0.331.02-.61,0.05-0.889,0.05-5.9.01-11.81,0-17.716,0.01a1.78,1.78,0,0,0-1.082.19,1.807,1.807,0,0,0-.653,1.16,1.544,1.544,0,0,0,.667,1.03,1.983,1.983,0,0,0,1.089.16q9.816,0.015,19.631.01H984Zm-22.459,2.53v0.83q0,6.255,0,12.5c0,1.43.36,1.92,1.507,1.92,6.091,0.02,12.183,0,18.274.02,0.549,0,.674-0.26.663-0.88-0.026-1.45-.058-2.91.009-4.36,0.044-.96-0.256-1.16-0.957-1.14-1.435.06-2.872,0.02-4.308,0.02-0.284,0-.568-0.03-0.845-0.05v-2.52h6.047v-6.34H961.541Zm-20.394,27.9v-2.39h32.641c0,0.5,0,.99,0,1.47,0,0.29-.027.58-0.045,0.92H941.147Zm16.3,2.6a2.588,2.588,0,1,1-2.047,2.53A2.4,2.4,0,0,1,957.445,9407.83Z" transform="translate(-937 -9357)"/>
</svg>
