<svg xmlns="http://www.w3.org/2000/svg" width="46" height="60" viewBox="0 0 46 60">
  <defs>
    <style>
      .cls-1 {
        fill: #ff1b60;
        fill-rule: evenodd;
      }
    </style>
  </defs>
  <path id="_3" data-name="3" class="cls-1" d="M1345.29,9358.04c0.9,3.16,2.28,4.51,4.59,4.55,2.44,0.04,3.73-1.16,4.86-4.59h15.41c2.04,0,2.85.8,2.85,2.82v54.35c0,2-.79,2.82-2.75,2.82-4.94.01-9.88,0-14.82,0-0.24,0-.47-0.03-0.69-0.04-1.23-3.49-2.47-4.61-4.94-4.54-2.27.06-3.65,1.44-4.52,4.58H1329.9c-2.15,0-2.9-.77-2.9-2.95v-54.17c0-2.06.78-2.86,2.79-2.87h14.73C1344.79,9358,1345.05,9358.03,1345.29,9358.04Zm-15.94,57.6a3.546,3.546,0,0,0,.43.06c4.37,0,8.75-.01,13.12.02a0.9,0.9,0,0,0,.89-0.69,6.666,6.666,0,0,1,6.18-3.93,6.588,6.588,0,0,1,6.19,3.88,1.181,1.181,0,0,0,1.24.74c4.07-.03,8.14-0.02,12.21-0.02h1.02v-55.34a4.137,4.137,0,0,0-.55-0.07c-4.32,0-8.63.02-12.94-.01a0.962,0.962,0,0,0-.96.73,6.651,6.651,0,0,1-6.11,3.88,6.549,6.549,0,0,1-6.21-3.84,1.228,1.228,0,0,0-1.31-.77c-4.1.03-8.2,0.01-12.3,0.01h-0.9v55.35Zm10.86-16.6c-0.38-.35-0.9-0.84-1.32-1.24q10.575-10.62,21.08-21.17c0.41,0.43.88,0.93,1.25,1.32C1354.25,9384.95,1347.22,9392,1340.21,9399.04Zm-2.84-17.98a4.6,4.6,0,1,1,4.62,4.61A4.59,4.59,0,0,1,1337.37,9381.06Zm4.56-2.27a2.28,2.28,0,1,0,2.31,2.24A2.258,2.258,0,0,0,1341.93,9378.79Zm20.7,16.06a4.606,4.606,0,0,1-4.56,4.69,4.669,4.669,0,0,1-4.63-4.65,4.618,4.618,0,0,1,4.59-4.57A4.56,4.56,0,0,1,1362.63,9394.85Zm-4.58,2.36a2.273,2.273,0,0,0,2.29-2.27,2.246,2.246,0,0,0-2.25-2.3A2.285,2.285,0,1,0,1358.05,9397.21Z" transform="translate(-1327 -9358)"/>
</svg>
