<svg xmlns="http://www.w3.org/2000/svg" width="46" height="58" viewBox="0 0 46 58">
  <defs>
    <style>
      .cls-1 {
        fill: #ff1b60;
        fill-rule: evenodd;
      }
    </style>
  </defs>
  <path id="_1" data-name="1" class="cls-1" d="M685.351,4074.34H677v-2.41h8.166c0-.41.009-0.75,0-1.08q-0.285-8.64-.573-17.27c-0.013-.37-0.013-0.75.008-1.13,0.165-2.92,1.622-4.41,4.554-4.42q10.851-.075,21.7,0c3.343,0.02,4.964,1.68,4.863,5.01-0.151,4.97-.432,9.94-0.632,14.91-0.052,1.28-.008,2.56-0.008,3.94H723v2.43h-8.181c-0.093,1.73-.181,3.36-0.273,5.07H712.4c0-2.02-.068-4.02.012-6.02,0.267-6.66.6-13.32,0.878-19.99,0.09-2.19-.71-2.95-2.93-2.95q-10.329-.015-20.659,0c-2.138,0-2.893.7-2.822,2.83,0.209,6.26.461,12.52,0.7,18.78,0.092,2.44.19,4.88,0.287,7.38h-2.517v-5.08Zm-4.755,7.58a54.438,54.438,0,0,0,38.8,0,14.255,14.255,0,0,1-.034,2.06,1.16,1.16,0,0,1-.722.59,50.277,50.277,0,0,1-16.35,3.26,0.918,0.918,0,0,0-1.1,1.14q0.062,6.33,0,12.65a0.92,0.92,0,0,0,.918,1.12c2.63,0.28,5.258.58,7.888,0.86a11.435,11.435,0,0,0,1.172,0v2.38a31.437,31.437,0,0,1-9.878-1.05,4.175,4.175,0,0,0-2.569,0,32,32,0,0,1-9.868,1.06v-2.33c1.279-.06,2.565-0.04,3.835-0.18,1.784-.2,3.554-0.51,5.332-0.76a0.851,0.851,0,0,0,.793-1.03q-0.035-6.48,0-12.94c0-.74-0.273-0.89-0.938-0.91a53.116,53.116,0,0,1-16.019-3.04c-1.013-.36-1.454-0.83-1.271-1.88A6.272,6.272,0,0,0,680.6,4081.92Z" transform="translate(-677 -4048)"/>
</svg>
