<svg xmlns="http://www.w3.org/2000/svg" width="44" height="58" viewBox="0 0 44 58">
  <defs>
    <style>
      .cls-1 {
        fill: #ff1b60;
        fill-rule: evenodd;
      }
    </style>
  </defs>
  <path id="_2" data-name="2" class="cls-1" d="M955.479,4105.99h-2.018c-4.239,0-8.477.01-12.715,0-2.008,0-2.745-.75-2.745-2.79q0-26.22,0-52.44c0-1.97.754-2.75,2.7-2.75,4.7,0,9.393.01,14.09-.01a0.758,0.758,0,0,1,.917.8,4.355,4.355,0,0,0,8.592,0,0.769,0.769,0,0,1,.914-0.81c4.754,0.03,9.507.01,14.261,0.02,1.713,0,2.526.84,2.527,2.57q0,26.445,0,52.88c0,1.62-.784,2.51-2.308,2.52-4.926.02-9.851,0.01-14.777,0.01a2.672,2.672,0,0,1-.408-0.06c-0.97-3.17-2.236-4.39-4.544-4.37C957.7,4101.57,956.406,4102.83,955.479,4105.99Zm-15.227-2.29a2.75,2.75,0,0,0,.443.07c4.182,0.01,8.363.02,12.545-.02a1.157,1.157,0,0,0,.775-0.58,6.472,6.472,0,0,1,5.985-3.84,6.307,6.307,0,0,1,5.91,3.78,1.05,1.05,0,0,0,1.111.68c3.953-.02,7.905-0.01,11.857-0.01h0.849v-53.51c-0.194-.02-0.333-0.05-0.472-0.05-4.153,0-8.306.01-12.458-.01a0.872,0.872,0,0,0-.859.65,6.363,6.363,0,0,1-5.9,3.81,6.284,6.284,0,0,1-5.928-3.74,1.125,1.125,0,0,0-1.179-.72c-3.952.02-7.9,0.01-11.857,0.01-0.271,0-.543.03-0.822,0.05v53.43Zm26.465-17.79a11.366,11.366,0,0,0,3.448-4.64,10.965,10.965,0,0,0-1.795-11.51,10.967,10.967,0,0,0-19.128,4.93,11.011,11.011,0,0,0,10.556,13.45c4.123,0.07,8.247.01,12.371,0.01h0.988v2.19c-0.248.02-.494,0.06-0.741,0.06-4.209,0-8.419.05-12.628-.02a13.385,13.385,0,1,1,13.295-15.01,13.434,13.434,0,0,1-2.675,9.89,1.4,1.4,0,0,1-1.362.66C968.364,4085.87,967.675,4085.91,966.717,4085.91Zm-12.229-11.14a2.231,2.231,0,1,1-2.191,2.22A2.23,2.23,0,0,1,954.488,4074.77Zm5.5-1.11a2.236,2.236,0,1,1,2.213-2.2A2.24,2.24,0,0,1,959.989,4073.66Zm2.215,8.96a2.2,2.2,0,1,1-2.142-2.28A2.235,2.235,0,0,1,962.2,4082.62Zm5.5-5.63a2.2,2.2,0,1,1-2.191-2.22A2.245,2.245,0,0,1,967.7,4076.99Z" transform="translate(-938 -4048)"/>
</svg>
