<svg xmlns="http://www.w3.org/2000/svg" width="18" height="18" viewBox="0 0 18 18">
  <defs>
    <style>
      .cls-1 {
        fill: #ff1b60;
        fill-rule: evenodd;
      }
    </style>
  </defs>
  <path id="smile" class="cls-1" d="M951,4257.95a9,9,0,1,1,8.969,9.05A9.13,9.13,0,0,1,951,4257.95Zm1.512,0.06a7.495,7.495,0,1,0,7.573-7.5A7.53,7.53,0,0,0,952.511,4258.01Zm11.361,1.13c0.123,0.11.209,0.19,0.293,0.26,0.261,0.24.522,0.47,0.773,0.69a6.354,6.354,0,0,1-9.845.06c0.324-.32.65-0.65,1.01-1.02a5.329,5.329,0,0,0,3.857,1.85A5.268,5.268,0,0,0,963.872,4259.14Zm-5.749-3.37a1.12,1.12,0,0,1-1.152,1.08,1.089,1.089,0,0,1-1.081-1.13,1.128,1.128,0,0,1,1.138-1.1A1.157,1.157,0,0,1,958.123,4255.77Zm6-.05a1.117,1.117,0,1,1-1.141-1.1A1.144,1.144,0,0,1,964.118,4255.72Z" transform="translate(-951 -4249)"/>
</svg>
