<svg xmlns="http://www.w3.org/2000/svg" width="32" height="35" viewBox="0 0 32 35">
  <defs>
    <style>
      .cls-1 {
        fill: #ff1b60;
        fill-rule: evenodd;
      }
    </style>
  </defs>
  <path id="_1" data-name="1" class="cls-1" d="M395.433,354.488c-0.77.769-1.513,1.509-2.255,2.248s-1.471,1.471-2.235,2.233c-0.333-.328-0.646-0.619-0.93-0.936a0.372,0.372,0,0,1,.09-0.319c0.963-.966,1.937-1.925,2.909-2.885,0.767-.759,1.531-1.521,2.3-2.275a0.842,0.842,0,0,0,.278-0.629,49.385,49.385,0,0,1,.5-5.963,24.019,24.019,0,0,1,.522-2.768,3.572,3.572,0,0,1,2.5-2.5,14.274,14.274,0,0,1,4.533-.7c1.786-.029,3.575-0.035,5.36.029a11.959,11.959,0,0,1,4.11.767,3.613,3.613,0,0,1,2.331,2.728,47.82,47.82,0,0,1,.922,8.29,1.073,1.073,0,0,0,.345.8c1.71,1.681,3.408,3.374,5.119,5.053,0.2,0.2.235,0.32,0.01,0.522-0.267.241-.5,0.524-0.78,0.833l-4.507-4.507-0.078.025c-0.011.115-.03,0.228-0.031,0.342-0.013,2.567.008,5.136-.045,7.7-0.036,1.691-.134,3.383-0.286,5.066a22.132,22.132,0,0,1-.548,3.369,4.81,4.81,0,0,1-3.194,3.337,10.852,10.852,0,0,1-3.927.639c-1.691.01-3.383,0.012-5.074,0a10.164,10.164,0,0,1-4.049-.745,4.757,4.757,0,0,1-3.025-3.582c-0.266-1.455-.451-2.93-0.571-4.4-0.31-3.777-.208-7.563-0.217-11.347,0-.1,0-0.19-0.009-0.286A0.624,0.624,0,0,0,395.433,354.488Zm10.959,12.128c2.424-.111,5.283-0.242,8.143-0.369a0.2,0.2,0,0,0,.232-0.217c0.023-.389.079-0.777,0.082-1.166,0.03-3.85.049-7.7,0.08-11.55a0.315,0.315,0,0,0-.35-0.37c-0.814-.058-1.628-0.126-2.442-0.189a79.209,79.209,0,0,0-9.937-.134c-1.6.076-3.2,0.22-4.8,0.326a0.326,0.326,0,0,0-.363.388c0.036,3.944.06,7.89,0.093,11.835a5.075,5.075,0,0,0,.08.851,0.334,0.334,0,0,0,.221.216c0.418,0.055.84,0.1,1.262,0.111C401.112,366.438,403.532,366.517,406.392,366.616ZM406,351.034c1.67,0.054,3.342.086,5.01,0.168,1.141,0.056,2.279.173,3.417,0.277,0.451,0.042.459,0.059,0.44-.383a52.281,52.281,0,0,0-.767-6.934,2.521,2.521,0,0,0-1.623-2.041,9.495,9.495,0,0,0-3.29-.625c-1.7-.061-3.4-0.085-5.1-0.063a14.916,14.916,0,0,0-4.129.511,2.552,2.552,0,0,0-1.861,1.395,8.311,8.311,0,0,0-.4,1.826c-0.168,1.194-.308,2.393-0.428,3.593-0.082.831-.109,1.668-0.167,2.5-0.014.2,0.065,0.277,0.268,0.24,0.179-.032.361-0.057,0.543-0.072C400.6,351.208,403.3,351.05,406,351.034Zm0,22.544c0-.013,0-0.027,0-0.042,0.778,0,1.557.012,2.335,0a9.481,9.481,0,0,0,3.771-.668,3.345,3.345,0,0,0,2.117-2.35c0.148-.685.226-1.386,0.31-2.083,0.088-.741.074-0.744-0.693-0.679-2.9.245-5.815,0.26-8.726,0.247-2.479-.01-4.957-0.056-7.429-0.269-0.364-.031-0.377-0.007-0.327.357,0.1,0.715.2,1.43,0.306,2.145a3.027,3.027,0,0,0,1.059,1.933,5.678,5.678,0,0,0,3.333,1.26C403.373,373.53,404.691,373.532,406.005,373.578Z" transform="translate(-390 -340)"/>
</svg>
