<svg xmlns="http://www.w3.org/2000/svg" width="26" height="38" viewBox="0 0 26 38">
  <defs>
    <style>
      .cls-1 {
        fill: #ff1b60;
        fill-rule: evenodd;
      }
    </style>
  </defs>
  <path id="_2" data-name="2" class="cls-1" d="M403.109,443.973q0-7.872,0-15.745a4.272,4.272,0,0,1,.342-1.919,2.292,2.292,0,0,1,2.842-1.207c1.628,0.411,3.234.915,4.85,1.381s3.251,0.929,4.871,1.411a4.894,4.894,0,0,1,2.316,1.23,2.339,2.339,0,0,1,.666,1.647q0,2.829.006,5.658,0,10.116,0,20.231a3.318,3.318,0,0,1-.289,1.693,3.1,3.1,0,0,1-1.747,1.41c-0.972.346-1.966,0.631-2.956,0.926-1.377.411-2.757,0.811-4.138,1.209-1.209.349-2.407,0.753-3.634,1.019a2.319,2.319,0,0,1-3.046-2.176c-0.125-1.226-.081-2.473-0.083-3.709q-0.012-6.53,0-13.059h0Zm1.442,0.032q0,7.942,0,15.883a4.3,4.3,0,0,0,.1.876,0.823,0.823,0,0,0,.683.709,2.2,2.2,0,0,0,.867-0.02c1.089-.288,2.169-0.61,3.251-0.924,1.254-.364,2.508-0.727,3.758-1.1,1.116-.334,2.231-0.667,3.339-1.027a1.313,1.313,0,0,0,1.007-1.4c0-.153,0-0.305,0-0.458V435.173c0-1.381-.01-2.762,0-4.142a1.321,1.321,0,0,0-1.017-1.426c-0.526-.2-1.067-0.358-1.607-0.519-1.359-.406-2.72-0.8-4.081-1.2-1.243-.364-2.486-0.733-3.73-1.094a4.349,4.349,0,0,0-1.655-.288,0.757,0.757,0,0,0-.719.507,4.1,4.1,0,0,0-.191,1.14Q404.541,436.076,404.551,444.005Zm-11.546-.016c0-4.333.006-8.667,0-13a2.937,2.937,0,0,1,1.142-2.51,2.766,2.766,0,0,1,1.682-.575c1.373-.013,2.746,0,4.12-0.008a0.242,0.242,0,0,1,.29.3,8.427,8.427,0,0,0,0,.885c0.014,0.235-.081.293-0.3,0.291q-1.976-.009-3.951,0a1.453,1.453,0,0,0-1.43.961,1.764,1.764,0,0,0-.108.669q-0.007,10.342,0,20.687,0,2.641,0,5.285a1.557,1.557,0,0,0,1.112,1.6,1.636,1.636,0,0,0,.5.058c1.279,0,2.558.009,3.838,0,0.249,0,.36.059,0.339,0.334-0.023.293-.008,0.59,0,0.885a0.212,0.212,0,0,1-.247.259c-1.439-.005-2.88.046-4.316-0.025A2.863,2.863,0,0,1,393,457.133c0.019-3.7.006-7.409,0.006-11.115v-2.029h0ZM406.563,444a0.9,0.9,0,0,1,.92-0.91,0.915,0.915,0,0,1-.036,1.828A0.9,0.9,0,0,1,406.563,444Z" transform="translate(-393 -425)"/>
</svg>
