<svg xmlns="http://www.w3.org/2000/svg" width="35" height="40" viewBox="0 0 35 40">
  <defs>
    <style>
      .cls-1 {
        fill: #ff1b60;
        fill-rule: evenodd;
      }
    </style>
  </defs>
  <path id="_3" data-name="3" class="cls-1" d="M660.5,375.993c-2.374,0-4.748,0-7.122,0a1.2,1.2,0,0,1-.816-0.305,7.542,7.542,0,0,1-2.485-3.884,9.24,9.24,0,0,1-.281-3.373,19.574,19.574,0,0,1,4.188-10.327c0.475-.6,1.048-1.115,1.576-1.667a1.176,1.176,0,0,1,1.082-.425c0.239,0.04.321-.063,0.315-0.33-0.016-.7-0.008-1.4,0-2.108a0.792,0.792,0,0,1,.824-0.887q2.723,0,5.444,0a0.79,0.79,0,0,1,.825.885c0,0.721.007,1.441,0,2.161,0,0.215.064,0.311,0.261,0.278a1.385,1.385,0,0,1,1.189.469,17.412,17.412,0,0,1,4.116,5.937,19.6,19.6,0,0,1,1.313,4.059,12.184,12.184,0,0,1,.211,4.312,7.521,7.521,0,0,1-2.88,5.021,1.04,1.04,0,0,1-.608.174c-2.381.012-4.763,0.007-7.145,0.007h0Zm0-1.65h0q3.4,0,6.81,0a0.573,0.573,0,0,0,.356-0.1,5.708,5.708,0,0,0,1.853-3.076,9.64,9.64,0,0,0-.025-4.1,17.956,17.956,0,0,0-1.312-4.085,15.5,15.5,0,0,0-3.54-5.119,0.72,0.72,0,0,0-.445-0.186q-3.693-.018-7.385,0a0.735,0.735,0,0,0-.445.185,11.713,11.713,0,0,0-1.914,2.213,18.727,18.727,0,0,0-2.8,6.359,11.041,11.041,0,0,0-.276,4.145,5.806,5.806,0,0,0,1.884,3.6,0.688,0.688,0,0,0,.429.163C655.955,374.346,658.224,374.343,660.494,374.343Zm0.018-18.334c0.591,0,1.181,0,1.772,0a0.2,0.2,0,0,0,.244-0.25c-0.009-.4-0.008-0.8,0-1.2a0.181,0.181,0,0,0-.21-0.226q-1.821.007-3.642,0c-0.158,0-.209.063-0.206,0.229,0.007,0.39.008,0.781,0,1.171a0.214,0.214,0,0,0,.248.273C659.314,356,659.913,356.009,660.512,356.009Zm-15.242-.292c-0.382.188-.764,0.379-1.148,0.565a0.734,0.734,0,0,1-.971-0.226,0.866,0.866,0,0,1,.041-1.03,2.37,2.37,0,0,1,.526-0.346,2.786,2.786,0,0,0,.494-0.31c-0.07-.012-0.139-0.025-0.209-0.034a0.792,0.792,0,0,1-.684-0.875,0.763,0.763,0,0,1,.758-0.767c0.911,0,1.823-.009,2.732.042a3.185,3.185,0,0,0,1.654-.4q5.358-2.7,10.729-5.378c0.079-.04.154-0.087,0.26-0.147-0.212-.459-0.419-0.9-0.626-1.349-0.144-.308-0.3-0.612-0.431-0.927a0.816,0.816,0,0,1,.4-1.134c1.2-.553,2.4-1.094,3.6-1.636q3.411-1.543,6.823-3.083,2.8-1.27,5.607-2.539a1.574,1.574,0,0,1,1.6.164,3.764,3.764,0,0,1,1.354,1.96,2.931,2.931,0,0,1,.088,1.979,1.667,1.667,0,0,1-.695.894q-4.929,3.257-9.855,6.515-2.423,1.6-4.846,3.2a0.77,0.77,0,0,1-1.3-.4c-0.292-.626-0.6-1.245-0.875-1.878-0.1-.23-0.2-0.274-0.415-0.163-1.473.748-2.952,1.483-4.43,2.223l-6.778,3.393c-0.217.108-.438,0.208-0.647,0.333a0.679,0.679,0,0,0-.211.238c-0.513.867-1.019,1.739-1.534,2.606a0.725,0.725,0,0,1-1.342.022,0.84,0.84,0,0,1,.014-0.794c0.117-.224.245-0.442,0.368-0.661C645.3,355.755,645.286,355.736,645.27,355.717Zm31.222-16.293a2.671,2.671,0,0,0-.819-1.674,0.436,0.436,0,0,0-.395-0.025q-3.462,1.548-6.915,3.118-3.984,1.8-7.969,3.61c-0.263.118-.276,0.143-0.15,0.412q0.924,1.968,1.849,3.933c0.14,0.3.143,0.3,0.405,0.122l5.174-3.421q4.284-2.831,8.57-5.661A0.44,0.44,0,0,0,676.492,339.424Zm-15.994,27.3h3.261a0.486,0.486,0,0,1,.258.017,0.645,0.645,0,0,1,.287.326,0.583,0.583,0,0,1-.191.394,0.478,0.478,0,0,1-.319.067q-3.273,0-6.545,0a0.573,0.573,0,0,1-.346-0.059,0.545,0.545,0,0,1-.213-0.376,0.648,0.648,0,0,1,.289-0.35,0.581,0.581,0,0,1,.306-0.02H660.5v0Zm0.009-2.5c0.486,0,.973,0,1.46,0a0.377,0.377,0,0,1,.452.4,0.39,0.39,0,0,1-.46.4q-1.473.007-2.944,0a0.382,0.382,0,0,1-.439-0.422,0.37,0.37,0,0,1,.446-0.38C659.517,364.228,660.012,364.23,660.507,364.23Z" transform="translate(-643 -336)"/>
</svg>
