<svg xmlns="http://www.w3.org/2000/svg" width="40" height="35" viewBox="0 0 40 35">
  <defs>
    <style>
      .cls-1 {
        fill: #ff1b60;
        fill-rule: evenodd;
      }
    </style>
  </defs>
  <path id="_4" data-name="4" class="cls-1" d="M677.326,445.322l3.765-4.341L682,442.187a1.8,1.8,0,0,1-.154.219q-2.077,2.372-4.161,4.738a1.155,1.155,0,0,1-1.965.065c-1.479-1.66-2.936-3.346-4.455-5.082l1.091-1.081,3.7,4.266v-0.961q0-7.485,0-14.971c0-1.422-.431-1.923-1.669-1.923H649.613c-1.128,0-1.588.537-1.589,1.845,0,1.782,0,3.565,0,5.394h-1.238c-0.01-.145-0.033-0.305-0.033-0.466,0-1.67-.007-3.34,0-5.009,0.01-2.053,1.017-3.216,2.81-3.218q12.437-.011,24.871,0c1.912,0,2.895,1.16,2.894,3.359q0,7.542,0,15.084v0.878Zm-1.272,6.947h1.183a0.289,0.289,0,0,1,.067.1c0,1.972.06,3.948-.019,5.916a2.593,2.593,0,0,1-2.681,2.7c-1.757.019-3.515,0.007-5.272,0.007q-9.823,0-19.648,0a2.533,2.533,0,0,1-2.692-1.768,5.759,5.759,0,0,1-.233-1.836c-0.017-5.028-.009-10.056-0.008-15.084v-0.7l-3.664,4.229L642,444.727c0.106-.14.185-0.256,0.275-0.36q2-2.3,4.009-4.589c0.78-.889,1.417-0.894,2.184-0.012,1.426,1.64,2.846,3.289,4.29,4.959-0.3.325-.615,0.673-0.991,1.085l-3.7-4.3c-0.018.231-.038,0.371-0.038,0.511q0,7.8,0,15.6c0,1.419.437,1.912,1.679,1.912h24.521c0.116,0,.233,0,0.349,0a1.41,1.41,0,0,0,1.476-1.681c0.011-1.651,0-3.3,0-4.952v-0.628Zm-19.456-1.8-0.713-.8,11.669-13.355c0.224,0.273.481,0.588,0.683,0.833Zm0.966-8.448a2.935,2.935,0,0,1,.039-5.816A2.933,2.933,0,0,1,657.564,442.025Zm1.286-2.9a1.281,1.281,0,1,0-1.263,1.432A1.35,1.35,0,0,0,658.85,439.129Zm7.635,5.834a2.713,2.713,0,0,1,2.548,2.862A2.563,2.563,0,1,1,666.485,444.963Zm1.279,2.882a1.331,1.331,0,0,0-1.272-1.418A1.455,1.455,0,1,0,667.764,447.845Z" transform="translate(-642 -426)"/>
</svg>
