<svg xmlns="http://www.w3.org/2000/svg" width="16" height="18" viewBox="0 0 16 18">
  <defs>
    <style>
      .cls-1 {
        fill: #ff1b60;
        fill-rule: evenodd;
      }
    </style>
  </defs>
  <path id="certs" class="cls-1" d="M945,6034h16v18H945v-18Zm14.394,1.51H946.611v14.98h12.783v-14.98Zm-10.385,6H957v1.47h-7.987v-1.47Zm7.987-3.75v1.47h-7.982v-1.47H957Zm-8.006,8.98c0-.45,0-0.88,0-1.31,0-.05.01-0.1,0.017-0.17,0.11,0,.212-0.01.314-0.01,1.649,0,3.3.01,4.949-.01,0.286,0,.358.08,0.343,0.34-0.021.38,0,.76,0,1.16H948.99Z" transform="translate(-945 -6034)"/>
</svg>
